<?xml version="1.0" encoding="UTF-8"?>
<svg version="1.1" xmlns="http://www.w3.org/2000/svg" width="64" height="64">
<path d="M0 0 C2.24283761 2.59389045 4 5.48383301 4 9 C8.95 8.34 13.9 7.68 19 7 C19 7.99 19 8.98 19 10 C17.04200486 10.33531415 15.08359226 10.66819143 13.125 11 C12.03445312 11.185625 10.94390625 11.37125 9.8203125 11.5625 C7 12 7 12 5 12 C5.05220703 13.12921875 5.05220703 13.12921875 5.10546875 14.28125 C5.38992971 25.44295624 5.00129248 37.84550538 -2 47 C-6.74795039 51.17244126 -11.17370239 51.29554983 -17.2734375 51.20703125 C-20.91607119 50.93044159 -23.07649686 50.2104536 -26 48 C-29.66032284 43.05361779 -31.43864053 38.21585728 -31 32 C-29.29480444 26.10065885 -26.03588989 22.35725993 -21 19 C-15.96391891 16.98556756 -12.240447 16.52899733 -7 18 C-4.12997609 19.8240821 -1.63422662 21.8279184 1 24 C1.33 20.04 1.66 16.08 2 12 C0.783125 11.938125 -0.43375 11.87625 -1.6875 11.8125 C-6.15849852 11.28836874 -8.13301658 9.49413605 -11 6 C-10.39816251 3.97954558 -9.72693904 1.97888961 -9 0 C-5.70095144 -1.64952428 -3.48363231 -0.96100202 0 0 Z M-5 2 C-5.99 2.495 -5.99 2.495 -7 3 C-6.67 4.32 -6.34 5.64 -6 7 C-3.03 7.495 -3.03 7.495 0 8 C-0.78130071 5.50447516 -0.78130071 5.50447516 -2 3 C-2.99 2.67 -3.98 2.34 -5 2 Z M-24 25 C-25.99083177 27.4251788 -25.99083177 27.4251788 -27 30 C-26.67 30.99 -26.34 31.98 -26 33 C-25.34 32.67 -24.68 32.34 -24 32 C-24.19078125 32.60328125 -24.3815625 33.2065625 -24.578125 33.828125 C-26.10383595 38.78366499 -26.10383595 38.78366499 -24.625 43.5 C-21.09380659 45.51782481 -18.02584762 46.40258476 -14 46 C-8.02293774 43.86213691 -4.19452011 39.52910888 -0.9375 34.21875 C0.26784765 31.86820864 0.26784765 31.86820864 -0.375 28.5625 C-2.07053144 25.88877734 -3.0352415 24.98825283 -6 24 C-6 23.34 -6 22.68 -6 22 C-12.09328756 18.95335622 -19.14770856 20.62110285 -24 25 Z M-28 33 C-27 35 -27 35 -27 35 Z M-2 39 C-1 41 -1 41 -1 41 Z M-4 42 C-5.485 43.98 -5.485 43.98 -7 46 C-5.68 45.34 -4.36 44.68 -3 44 C-3.33 43.34 -3.66 42.68 -4 42 Z " fill="#000000" transform="translate(40,4)"/>
</svg>
